<svg xmlns="http://www.w3.org/2000/svg" viewBox="0 0 820 210" width="820" height="210" shape-rendering="crispEdges" role="img" aria-label="Ormine"><rect x="40" y="0" width="120" height="10" fill="#1B120C"/><rect x="20" y="10" width="160" height="10" fill="#1B120C"/><rect x="10" y="20" width="180" height="10" fill="#1B120C"/><rect x="210" y="20" width="100" height="10" fill="#1B120C"/><rect x="340" y="20" width="40" height="10" fill="#1B120C"/><rect x="420" y="20" width="40" height="10" fill="#1B120C"/><rect x="470" y="20" width="80" height="10" fill="#1B120C"/><rect x="560" y="20" width="40" height="10" fill="#1B120C"/><rect x="640" y="20" width="40" height="10" fill="#1B120C"/><rect x="690" y="20" width="120" height="10" fill="#1B120C"/><rect x="10" y="30" width="190" height="10" fill="#1B120C"/><rect x="210" y="30" width="110" height="10" fill="#1B120C"/><rect x="340" y="30" width="50" height="10" fill="#1B120C"/><rect x="420" y="30" width="190" height="10" fill="#1B120C"/><rect x="640" y="30" width="180" height="10" fill="#1B120C"/><rect x="0" y="40" width="200" height="10" fill="#1B120C"/><rect x="210" y="40" width="120" height="10" fill="#1B120C"/><rect x="340" y="40" width="50" height="10" fill="#1B120C"/><rect x="410" y="40" width="200" height="10" fill="#1B120C"/><rect x="640" y="40" width="180" height="10" fill="#1B120C"/><rect x="0" y="50" width="620" height="10" fill="#1B120C"/><rect x="640" y="50" width="180" height="10" fill="#1B120C"/><rect x="0" y="60" width="470" height="10" fill="#1B120C"/><rect x="480" y="60" width="150" height="10" fill="#1B120C"/><rect x="640" y="60" width="180" height="10" fill="#1B120C"/><rect x="0" y="70" width="470" height="10" fill="#1B120C"/><rect x="490" y="70" width="50" height="10" fill="#1B120C"/><rect x="560" y="70" width="220" height="10" fill="#1B120C"/><rect x="0" y="80" width="470" height="10" fill="#1B120C"/><rect x="490" y="80" width="50" height="10" fill="#1B120C"/><rect x="560" y="80" width="220" height="10" fill="#1B120C"/><rect x="0" y="90" width="470" height="10" fill="#1B120C"/><rect x="490" y="90" width="50" height="10" fill="#1B120C"/><rect x="560" y="90" width="220" height="10" fill="#1B120C"/><rect x="0" y="100" width="470" height="10" fill="#1B120C"/><rect x="490" y="100" width="50" height="10" fill="#1B120C"/><rect x="560" y="100" width="220" height="10" fill="#1B120C"/><rect x="0" y="110" width="260" height="10" fill="#1B120C"/><rect x="290" y="110" width="100" height="10" fill="#1B120C"/><rect x="420" y="110" width="50" height="10" fill="#1B120C"/><rect x="490" y="110" width="50" height="10" fill="#1B120C"/><rect x="560" y="110" width="50" height="10" fill="#1B120C"/><rect x="620" y="110" width="120" height="10" fill="#1B120C"/><rect x="0" y="120" width="260" height="10" fill="#1B120C"/><rect x="290" y="120" width="100" height="10" fill="#1B120C"/><rect x="420" y="120" width="50" height="10" fill="#1B120C"/><rect x="490" y="120" width="50" height="10" fill="#1B120C"/><rect x="560" y="120" width="50" height="10" fill="#1B120C"/><rect x="630" y="120" width="110" height="10" fill="#1B120C"/><rect x="0" y="130" width="260" height="10" fill="#1B120C"/><rect x="290" y="130" width="100" height="10" fill="#1B120C"/><rect x="420" y="130" width="50" height="10" fill="#1B120C"/><rect x="490" y="130" width="50" height="10" fill="#1B120C"/><rect x="560" y="130" width="50" height="10" fill="#1B120C"/><rect x="640" y="130" width="100" height="10" fill="#1B120C"/><rect x="0" y="140" width="260" height="10" fill="#1B120C"/><rect x="290" y="140" width="100" height="10" fill="#1B120C"/><rect x="420" y="140" width="130" height="10" fill="#1B120C"/><rect x="560" y="140" width="50" height="10" fill="#1B120C"/><rect x="640" y="140" width="170" height="10" fill="#1B120C"/><rect x="0" y="150" width="260" height="10" fill="#1B120C"/><rect x="290" y="150" width="100" height="10" fill="#1B120C"/><rect x="420" y="150" width="190" height="10" fill="#1B120C"/><rect x="640" y="150" width="180" height="10" fill="#1B120C"/><rect x="10" y="160" width="250" height="10" fill="#1B120C"/><rect x="290" y="160" width="100" height="10" fill="#1B120C"/><rect x="420" y="160" width="190" height="10" fill="#1B120C"/><rect x="640" y="160" width="180" height="10" fill="#1B120C"/><rect x="10" y="170" width="190" height="10" fill="#1B120C"/><rect x="210" y="170" width="50" height="10" fill="#1B120C"/><rect x="290" y="170" width="100" height="10" fill="#1B120C"/><rect x="420" y="170" width="190" height="10" fill="#1B120C"/><rect x="640" y="170" width="180" height="10" fill="#1B120C"/><rect x="20" y="180" width="180" height="10" fill="#1B120C"/><rect x="220" y="180" width="40" height="10" fill="#1B120C"/><rect x="300" y="180" width="40" height="10" fill="#1B120C"/><rect x="350" y="180" width="40" height="10" fill="#1B120C"/><rect x="430" y="180" width="40" height="10" fill="#1B120C"/><rect x="480" y="180" width="80" height="10" fill="#1B120C"/><rect x="570" y="180" width="40" height="10" fill="#1B120C"/><rect x="650" y="180" width="40" height="10" fill="#1B120C"/><rect x="700" y="180" width="120" height="10" fill="#1B120C"/><rect x="30" y="190" width="160" height="10" fill="#1B120C"/><rect x="50" y="200" width="120" height="10" fill="#1B120C"/><rect x="180" y="40" width="10" height="10" fill="#8A5A12"/><rect x="300" y="40" width="10" height="10" fill="#8A5A12"/><rect x="370" y="40" width="10" height="10" fill="#8A5A12"/><rect x="450" y="40" width="10" height="10" fill="#8A5A12"/><rect x="540" y="40" width="10" height="10" fill="#8A5A12"/><rect x="590" y="40" width="10" height="10" fill="#8A5A12"/><rect x="670" y="40" width="10" height="10" fill="#8A5A12"/><rect x="800" y="40" width="10" height="10" fill="#8A5A12"/><rect x="240" y="50" width="60" height="10" fill="#8A5A12"/><rect x="450" y="50" width="10" height="10" fill="#8A5A12"/><rect x="490" y="50" width="10" height="10" fill="#8A5A12"/><rect x="520" y="50" width="30" height="10" fill="#8A5A12"/><rect x="670" y="50" width="10" height="10" fill="#8A5A12"/><rect x="720" y="50" width="90" height="10" fill="#8A5A12"/><rect x="190" y="60" width="10" height="10" fill="#8A5A12"/><rect x="240" y="60" width="10" height="10" fill="#8A5A12"/><rect x="320" y="60" width="10" height="10" fill="#8A5A12"/><rect x="450" y="60" width="10" height="10" fill="#8A5A12"/><rect x="520" y="60" width="10" height="10" fill="#8A5A12"/><rect x="670" y="60" width="10" height="10" fill="#8A5A12"/><rect x="720" y="60" width="10" height="10" fill="#8A5A12"/><rect x="190" y="70" width="10" height="10" fill="#8A5A12"/><rect x="310" y="70" width="20" height="10" fill="#8A5A12"/><rect x="370" y="70" width="10" height="10" fill="#8A5A12"/><rect x="420" y="70" width="10" height="10" fill="#8A5A12"/><rect x="450" y="70" width="10" height="10" fill="#8A5A12"/><rect x="520" y="70" width="10" height="10" fill="#8A5A12"/><rect x="590" y="70" width="10" height="10" fill="#8A5A12"/><rect x="670" y="70" width="10" height="10" fill="#8A5A12"/><rect x="190" y="80" width="10" height="10" fill="#8A5A12"/><rect x="300" y="80" width="10" height="10" fill="#8A5A12"/><rect x="370" y="80" width="10" height="10" fill="#8A5A12"/><rect x="410" y="80" width="20" height="10" fill="#8A5A12"/><rect x="450" y="80" width="10" height="10" fill="#8A5A12"/><rect x="520" y="80" width="10" height="10" fill="#8A5A12"/><rect x="590" y="80" width="10" height="10" fill="#8A5A12"/><rect x="670" y="80" width="10" height="10" fill="#8A5A12"/><rect x="760" y="80" width="10" height="10" fill="#8A5A12"/><rect x="190" y="90" width="10" height="10" fill="#8A5A12"/><rect x="240" y="90" width="60" height="10" fill="#8A5A12"/><rect x="370" y="90" width="10" height="10" fill="#8A5A12"/><rect x="400" y="90" width="20" height="10" fill="#8A5A12"/><rect x="450" y="90" width="10" height="10" fill="#8A5A12"/><rect x="520" y="90" width="10" height="10" fill="#8A5A12"/><rect x="590" y="90" width="10" height="10" fill="#8A5A12"/><rect x="670" y="90" width="10" height="10" fill="#8A5A12"/><rect x="720" y="90" width="50" height="10" fill="#8A5A12"/><rect x="190" y="100" width="10" height="10" fill="#8A5A12"/><rect x="240" y="100" width="10" height="10" fill="#8A5A12"/><rect x="320" y="100" width="10" height="10" fill="#8A5A12"/><rect x="370" y="100" width="10" height="10" fill="#8A5A12"/><rect x="450" y="100" width="10" height="10" fill="#8A5A12"/><rect x="520" y="100" width="10" height="10" fill="#8A5A12"/><rect x="590" y="100" width="10" height="10" fill="#8A5A12"/><rect x="670" y="100" width="10" height="10" fill="#8A5A12"/><rect x="720" y="100" width="10" height="10" fill="#8A5A12"/><rect x="190" y="110" width="10" height="10" fill="#8A5A12"/><rect x="240" y="110" width="10" height="10" fill="#8A5A12"/><rect x="320" y="110" width="10" height="10" fill="#8A5A12"/><rect x="370" y="110" width="10" height="10" fill="#8A5A12"/><rect x="450" y="110" width="10" height="10" fill="#8A5A12"/><rect x="520" y="110" width="10" height="10" fill="#8A5A12"/><rect x="590" y="110" width="10" height="10" fill="#8A5A12"/><rect x="670" y="110" width="10" height="10" fill="#8A5A12"/><rect x="720" y="110" width="10" height="10" fill="#8A5A12"/><rect x="190" y="120" width="10" height="10" fill="#8A5A12"/><rect x="240" y="120" width="10" height="10" fill="#8A5A12"/><rect x="320" y="120" width="10" height="10" fill="#8A5A12"/><rect x="370" y="120" width="10" height="10" fill="#8A5A12"/><rect x="450" y="120" width="10" height="10" fill="#8A5A12"/><rect x="520" y="120" width="10" height="10" fill="#8A5A12"/><rect x="590" y="120" width="10" height="10" fill="#8A5A12"/><rect x="670" y="120" width="10" height="10" fill="#8A5A12"/><rect x="720" y="120" width="10" height="10" fill="#8A5A12"/><rect x="190" y="130" width="10" height="10" fill="#8A5A12"/><rect x="240" y="130" width="10" height="10" fill="#8A5A12"/><rect x="320" y="130" width="10" height="10" fill="#8A5A12"/><rect x="370" y="130" width="10" height="10" fill="#8A5A12"/><rect x="450" y="130" width="10" height="10" fill="#8A5A12"/><rect x="520" y="130" width="10" height="10" fill="#8A5A12"/><rect x="590" y="130" width="10" height="10" fill="#8A5A12"/><rect x="670" y="130" width="10" height="10" fill="#8A5A12"/><rect x="720" y="130" width="10" height="10" fill="#8A5A12"/><rect x="190" y="140" width="10" height="10" fill="#8A5A12"/><rect x="240" y="140" width="10" height="10" fill="#8A5A12"/><rect x="320" y="140" width="10" height="10" fill="#8A5A12"/><rect x="370" y="140" width="10" height="10" fill="#8A5A12"/><rect x="450" y="140" width="10" height="10" fill="#8A5A12"/><rect x="520" y="140" width="10" height="10" fill="#8A5A12"/><rect x="590" y="140" width="10" height="10" fill="#8A5A12"/><rect x="670" y="140" width="10" height="10" fill="#8A5A12"/><rect x="720" y="140" width="10" height="10" fill="#8A5A12"/><rect x="180" y="150" width="20" height="10" fill="#8A5A12"/><rect x="240" y="150" width="10" height="10" fill="#8A5A12"/><rect x="320" y="150" width="10" height="10" fill="#8A5A12"/><rect x="370" y="150" width="10" height="10" fill="#8A5A12"/><rect x="450" y="150" width="10" height="10" fill="#8A5A12"/><rect x="590" y="150" width="10" height="10" fill="#8A5A12"/><rect x="670" y="150" width="10" height="10" fill="#8A5A12"/><rect x="180" y="160" width="10" height="10" fill="#8A5A12"/><rect x="240" y="160" width="10" height="10" fill="#8A5A12"/><rect x="320" y="160" width="10" height="10" fill="#8A5A12"/><rect x="370" y="160" width="10" height="10" fill="#8A5A12"/><rect x="450" y="160" width="10" height="10" fill="#8A5A12"/><rect x="540" y="160" width="10" height="10" fill="#8A5A12"/><rect x="590" y="160" width="10" height="10" fill="#8A5A12"/><rect x="670" y="160" width="10" height="10" fill="#8A5A12"/><rect x="800" y="160" width="10" height="10" fill="#8A5A12"/><rect x="170" y="170" width="20" height="10" fill="#8A5A12"/><rect x="230" y="170" width="20" height="10" fill="#8A5A12"/><rect x="310" y="170" width="20" height="10" fill="#8A5A12"/><rect x="360" y="170" width="20" height="10" fill="#8A5A12"/><rect x="440" y="170" width="20" height="10" fill="#8A5A12"/><rect x="490" y="170" width="60" height="10" fill="#8A5A12"/><rect x="580" y="170" width="20" height="10" fill="#8A5A12"/><rect x="660" y="170" width="20" height="10" fill="#8A5A12"/><rect x="710" y="170" width="100" height="10" fill="#8A5A12"/><rect x="40" y="180" width="10" height="10" fill="#8A5A12"/><rect x="150" y="180" width="30" height="10" fill="#8A5A12"/><rect x="60" y="190" width="100" height="10" fill="#8A5A12"/><rect x="50" y="10" width="100" height="10" fill="#E0A21E"/><rect x="30" y="20" width="140" height="10" fill="#E0A21E"/><rect x="20" y="30" width="40" height="10" fill="#E0A21E"/><rect x="60" y="30" width="80" height="10" fill="#FFE680"/><rect x="140" y="30" width="40" height="10" fill="#E0A21E"/><rect x="220" y="30" width="80" height="10" fill="#FFE680"/><rect x="350" y="30" width="20" height="10" fill="#FFE680"/><rect x="430" y="30" width="20" height="10" fill="#FFE680"/><rect x="480" y="30" width="60" height="10" fill="#FFE680"/><rect x="570" y="30" width="20" height="10" fill="#FFE680"/><rect x="650" y="30" width="20" height="10" fill="#FFE680"/><rect x="700" y="30" width="100" height="10" fill="#FFE680"/><rect x="20" y="40" width="20" height="10" fill="#E0A21E"/><rect x="40" y="40" width="120" height="10" fill="#FFE680"/><rect x="160" y="40" width="20" height="10" fill="#E0A21E"/><rect x="220" y="40" width="80" height="10" fill="#FFE680"/><rect x="350" y="40" width="20" height="10" fill="#FFE680"/><rect x="430" y="40" width="20" height="10" fill="#FFE680"/><rect x="480" y="40" width="60" height="10" fill="#FFE680"/><rect x="570" y="40" width="20" height="10" fill="#FFE680"/><rect x="650" y="40" width="20" height="10" fill="#FFE680"/><rect x="700" y="40" width="100" height="10" fill="#FFE680"/><rect x="10" y="50" width="30" height="10" fill="#E0A21E"/><rect x="40" y="50" width="10" height="10" fill="#F5CC17"/><rect x="50" y="50" width="100" height="10" fill="#E9B820"/><rect x="150" y="50" width="10" height="10" fill="#F5CC17"/><rect x="160" y="50" width="30" height="10" fill="#E0A21E"/><rect x="220" y="50" width="20" height="10" fill="#FFE680"/><rect x="300" y="50" width="20" height="10" fill="#FFE680"/><rect x="350" y="50" width="30" height="10" fill="#FFE680"/><rect x="420" y="50" width="30" height="10" fill="#FFE680"/><rect x="500" y="50" width="20" height="10" fill="#FFE680"/><rect x="570" y="50" width="30" height="10" fill="#FFE680"/><rect x="650" y="50" width="20" height="10" fill="#FFE680"/><rect x="700" y="50" width="20" height="10" fill="#FFE680"/><rect x="10" y="60" width="20" height="10" fill="#E0A21E"/><rect x="30" y="60" width="20" height="10" fill="#F5CC17"/><rect x="50" y="60" width="10" height="10" fill="#E9B820"/><rect x="60" y="60" width="30" height="10" fill="#FFF4C2"/><rect x="90" y="60" width="50" height="10" fill="#F5CC17"/><rect x="140" y="60" width="10" height="10" fill="#E9B820"/><rect x="150" y="60" width="20" height="10" fill="#F5CC17"/><rect x="170" y="60" width="20" height="10" fill="#E0A21E"/><rect x="220" y="60" width="20" height="10" fill="#F5CC17"/><rect x="300" y="60" width="20" height="10" fill="#F5CC17"/><rect x="350" y="60" width="40" height="10" fill="#F5CC17"/><rect x="410" y="60" width="40" height="10" fill="#F5CC17"/><rect x="500" y="60" width="20" height="10" fill="#F5CC17"/><rect x="570" y="60" width="40" height="10" fill="#F5CC17"/><rect x="650" y="60" width="20" height="10" fill="#F5CC17"/><rect x="700" y="60" width="20" height="10" fill="#F5CC17"/><rect x="10" y="70" width="20" height="10" fill="#E0A21E"/><rect x="30" y="70" width="20" height="10" fill="#F5CC17"/><rect x="50" y="70" width="10" height="10" fill="#E9B820"/><rect x="60" y="70" width="10" height="10" fill="#FFF4C2"/><rect x="70" y="70" width="70" height="10" fill="#F5CC17"/><rect x="140" y="70" width="10" height="10" fill="#E9B820"/><rect x="150" y="70" width="20" height="10" fill="#F5CC17"/><rect x="170" y="70" width="20" height="10" fill="#E0A21E"/><rect x="220" y="70" width="80" height="10" fill="#F5CC17"/><rect x="350" y="70" width="20" height="10" fill="#F5CC17"/><rect x="380" y="70" width="40" height="10" fill="#F5CC17"/><rect x="430" y="70" width="20" height="10" fill="#F5CC17"/><rect x="500" y="70" width="20" height="10" fill="#F5CC17"/><rect x="570" y="70" width="20" height="10" fill="#F5CC17"/><rect x="600" y="70" width="20" height="10" fill="#F5CC17"/><rect x="650" y="70" width="20" height="10" fill="#F5CC17"/><rect x="700" y="70" width="60" height="10" fill="#F5CC17"/><rect x="10" y="80" width="20" height="10" fill="#E0A21E"/><rect x="30" y="80" width="20" height="10" fill="#F5CC17"/><rect x="50" y="80" width="10" height="10" fill="#E9B820"/><rect x="60" y="80" width="80" height="10" fill="#F5CC17"/><rect x="140" y="80" width="10" height="10" fill="#E9B820"/><rect x="150" y="80" width="20" height="10" fill="#F5CC17"/><rect x="170" y="80" width="20" height="10" fill="#E0A21E"/><rect x="220" y="80" width="80" height="10" fill="#F5CC17"/><rect x="350" y="80" width="20" height="10" fill="#F5CC17"/><rect x="390" y="80" width="20" height="10" fill="#F5CC17"/><rect x="430" y="80" width="20" height="10" fill="#F5CC17"/><rect x="500" y="80" width="20" height="10" fill="#F5CC17"/><rect x="570" y="80" width="20" height="10" fill="#F5CC17"/><rect x="610" y="80" width="20" height="10" fill="#F5CC17"/><rect x="650" y="80" width="20" height="10" fill="#F5CC17"/><rect x="700" y="80" width="60" height="10" fill="#F5CC17"/><rect x="10" y="90" width="20" height="10" fill="#E0A21E"/><rect x="30" y="90" width="20" height="10" fill="#F5CC17"/><rect x="50" y="90" width="10" height="10" fill="#E9B820"/><rect x="60" y="90" width="80" height="10" fill="#F5CC17"/><rect x="140" y="90" width="10" height="10" fill="#E9B820"/><rect x="150" y="90" width="20" height="10" fill="#F5CC17"/><rect x="170" y="90" width="20" height="10" fill="#E0A21E"/><rect x="220" y="90" width="20" height="10" fill="#F5CC17"/><rect x="300" y="90" width="20" height="10" fill="#F5CC17"/><rect x="350" y="90" width="20" height="10" fill="#F5CC17"/><rect x="430" y="90" width="20" height="10" fill="#F5CC17"/><rect x="500" y="90" width="20" height="10" fill="#F5CC17"/><rect x="570" y="90" width="20" height="10" fill="#F5CC17"/><rect x="620" y="90" width="20" height="10" fill="#F5CC17"/><rect x="650" y="90" width="20" height="10" fill="#F5CC17"/><rect x="700" y="90" width="20" height="10" fill="#F5CC17"/><rect x="10" y="100" width="20" height="10" fill="#E0A21E"/><rect x="30" y="100" width="20" height="10" fill="#F5CC17"/><rect x="50" y="100" width="10" height="10" fill="#E9B820"/><rect x="60" y="100" width="80" height="10" fill="#F5CC17"/><rect x="140" y="100" width="10" height="10" fill="#E9B820"/><rect x="150" y="100" width="20" height="10" fill="#F5CC17"/><rect x="170" y="100" width="20" height="10" fill="#E0A21E"/><rect x="220" y="100" width="20" height="10" fill="#F5CC17"/><rect x="300" y="100" width="20" height="10" fill="#F5CC17"/><rect x="350" y="100" width="20" height="10" fill="#F5CC17"/><rect x="430" y="100" width="20" height="10" fill="#F5CC17"/><rect x="500" y="100" width="20" height="10" fill="#F5CC17"/><rect x="570" y="100" width="20" height="10" fill="#F5CC17"/><rect x="630" y="100" width="40" height="10" fill="#F5CC17"/><rect x="700" y="100" width="20" height="10" fill="#F5CC17"/><rect x="10" y="110" width="20" height="10" fill="#E0A21E"/><rect x="30" y="110" width="20" height="10" fill="#F5CC17"/><rect x="50" y="110" width="10" height="10" fill="#E9B820"/><rect x="60" y="110" width="80" height="10" fill="#F5CC17"/><rect x="140" y="110" width="10" height="10" fill="#E9B820"/><rect x="150" y="110" width="20" height="10" fill="#F5CC17"/><rect x="170" y="110" width="20" height="10" fill="#E0A21E"/><rect x="220" y="110" width="20" height="10" fill="#F5CC17"/><rect x="300" y="110" width="20" height="10" fill="#F5CC17"/><rect x="350" y="110" width="20" height="10" fill="#F5CC17"/><rect x="430" y="110" width="20" height="10" fill="#F5CC17"/><rect x="500" y="110" width="20" height="10" fill="#F5CC17"/><rect x="570" y="110" width="20" height="10" fill="#F5CC17"/><rect x="640" y="110" width="30" height="10" fill="#F5CC17"/><rect x="700" y="110" width="20" height="10" fill="#F5CC17"/><rect x="10" y="120" width="20" height="10" fill="#E0A21E"/><rect x="30" y="120" width="20" height="10" fill="#F5CC17"/><rect x="50" y="120" width="10" height="10" fill="#E9B820"/><rect x="60" y="120" width="70" height="10" fill="#F5CC17"/><rect x="130" y="120" width="10" height="10" fill="#FFFFFF"/><rect x="140" y="120" width="10" height="10" fill="#E9B820"/><rect x="150" y="120" width="20" height="10" fill="#F5CC17"/><rect x="170" y="120" width="20" height="10" fill="#E0A21E"/><rect x="220" y="120" width="20" height="10" fill="#F5CC17"/><rect x="300" y="120" width="20" height="10" fill="#F5CC17"/><rect x="350" y="120" width="20" height="10" fill="#F5CC17"/><rect x="430" y="120" width="20" height="10" fill="#F5CC17"/><rect x="500" y="120" width="20" height="10" fill="#F5CC17"/><rect x="570" y="120" width="20" height="10" fill="#F5CC17"/><rect x="650" y="120" width="20" height="10" fill="#F5CC17"/><rect x="700" y="120" width="20" height="10" fill="#F5CC17"/><rect x="10" y="130" width="20" height="10" fill="#E0A21E"/><rect x="30" y="130" width="20" height="10" fill="#F5CC17"/><rect x="50" y="130" width="10" height="10" fill="#E9B820"/><rect x="60" y="130" width="60" height="10" fill="#F5CC17"/><rect x="120" y="130" width="30" height="10" fill="#FFFFFF"/><rect x="150" y="130" width="20" height="10" fill="#F5CC17"/><rect x="170" y="130" width="20" height="10" fill="#E0A21E"/><rect x="220" y="130" width="20" height="10" fill="#E0A21E"/><rect x="300" y="130" width="20" height="10" fill="#E0A21E"/><rect x="350" y="130" width="20" height="10" fill="#E0A21E"/><rect x="430" y="130" width="20" height="10" fill="#E0A21E"/><rect x="500" y="130" width="20" height="10" fill="#E0A21E"/><rect x="570" y="130" width="20" height="10" fill="#E0A21E"/><rect x="650" y="130" width="20" height="10" fill="#E0A21E"/><rect x="700" y="130" width="20" height="10" fill="#E0A21E"/><rect x="10" y="140" width="40" height="10" fill="#E0A21E"/><rect x="50" y="140" width="80" height="10" fill="#E9B820"/><rect x="130" y="140" width="10" height="10" fill="#FFFFFF"/><rect x="140" y="140" width="10" height="10" fill="#E9B820"/><rect x="150" y="140" width="40" height="10" fill="#E0A21E"/><rect x="220" y="140" width="20" height="10" fill="#E0A21E"/><rect x="300" y="140" width="20" height="10" fill="#E0A21E"/><rect x="350" y="140" width="20" height="10" fill="#E0A21E"/><rect x="430" y="140" width="20" height="10" fill="#E0A21E"/><rect x="500" y="140" width="20" height="10" fill="#E0A21E"/><rect x="570" y="140" width="20" height="10" fill="#E0A21E"/><rect x="650" y="140" width="20" height="10" fill="#E0A21E"/><rect x="700" y="140" width="20" height="10" fill="#E0A21E"/><rect x="20" y="150" width="160" height="10" fill="#E0A21E"/><rect x="220" y="150" width="20" height="10" fill="#E0A21E"/><rect x="300" y="150" width="20" height="10" fill="#E0A21E"/><rect x="350" y="150" width="20" height="10" fill="#E0A21E"/><rect x="430" y="150" width="20" height="10" fill="#E0A21E"/><rect x="480" y="150" width="60" height="10" fill="#E0A21E"/><rect x="570" y="150" width="20" height="10" fill="#E0A21E"/><rect x="650" y="150" width="20" height="10" fill="#E0A21E"/><rect x="700" y="150" width="100" height="10" fill="#E0A21E"/><rect x="20" y="160" width="160" height="10" fill="#E0A21E"/><rect x="220" y="160" width="20" height="10" fill="#E0A21E"/><rect x="300" y="160" width="20" height="10" fill="#E0A21E"/><rect x="350" y="160" width="20" height="10" fill="#E0A21E"/><rect x="430" y="160" width="20" height="10" fill="#E0A21E"/><rect x="480" y="160" width="60" height="10" fill="#E0A21E"/><rect x="570" y="160" width="20" height="10" fill="#E0A21E"/><rect x="650" y="160" width="20" height="10" fill="#E0A21E"/><rect x="700" y="160" width="100" height="10" fill="#E0A21E"/><rect x="30" y="170" width="140" height="10" fill="#E0A21E"/><rect x="50" y="180" width="100" height="10" fill="#E0A21E"/></svg>