<svg xmlns="http://www.w3.org/2000/svg" viewBox="0 0 790 180" width="790" height="180" shape-rendering="crispEdges" fill="currentColor" role="img" aria-label="Ormine"><rect x="40" y="0" width="100" height="10"/><rect x="20" y="10" width="140" height="10"/><rect x="10" y="20" width="160" height="10"/><rect x="210" y="20" width="80" height="10"/><rect x="340" y="20" width="20" height="10"/><rect x="420" y="20" width="20" height="10"/><rect x="470" y="20" width="60" height="10"/><rect x="560" y="20" width="20" height="10"/><rect x="640" y="20" width="20" height="10"/><rect x="690" y="20" width="100" height="10"/><rect x="10" y="30" width="160" height="10"/><rect x="210" y="30" width="80" height="10"/><rect x="340" y="30" width="20" height="10"/><rect x="420" y="30" width="20" height="10"/><rect x="470" y="30" width="60" height="10"/><rect x="560" y="30" width="20" height="10"/><rect x="640" y="30" width="20" height="10"/><rect x="690" y="30" width="100" height="10"/><rect x="0" y="40" width="180" height="10"/><rect x="210" y="40" width="20" height="10"/><rect x="290" y="40" width="20" height="10"/><rect x="340" y="40" width="30" height="10"/><rect x="410" y="40" width="30" height="10"/><rect x="490" y="40" width="20" height="10"/><rect x="560" y="40" width="30" height="10"/><rect x="640" y="40" width="20" height="10"/><rect x="690" y="40" width="20" height="10"/><rect x="0" y="50" width="180" height="10"/><rect x="210" y="50" width="20" height="10"/><rect x="290" y="50" width="20" height="10"/><rect x="340" y="50" width="40" height="10"/><rect x="400" y="50" width="40" height="10"/><rect x="490" y="50" width="20" height="10"/><rect x="560" y="50" width="40" height="10"/><rect x="640" y="50" width="20" height="10"/><rect x="690" y="50" width="20" height="10"/><rect x="0" y="60" width="180" height="10"/><rect x="210" y="60" width="80" height="10"/><rect x="340" y="60" width="20" height="10"/><rect x="370" y="60" width="40" height="10"/><rect x="420" y="60" width="20" height="10"/><rect x="490" y="60" width="20" height="10"/><rect x="560" y="60" width="20" height="10"/><rect x="590" y="60" width="20" height="10"/><rect x="640" y="60" width="20" height="10"/><rect x="690" y="60" width="60" height="10"/><rect x="0" y="70" width="180" height="10"/><rect x="210" y="70" width="80" height="10"/><rect x="340" y="70" width="20" height="10"/><rect x="380" y="70" width="20" height="10"/><rect x="420" y="70" width="20" height="10"/><rect x="490" y="70" width="20" height="10"/><rect x="560" y="70" width="20" height="10"/><rect x="600" y="70" width="20" height="10"/><rect x="640" y="70" width="20" height="10"/><rect x="690" y="70" width="60" height="10"/><rect x="0" y="80" width="180" height="10"/><rect x="210" y="80" width="20" height="10"/><rect x="290" y="80" width="20" height="10"/><rect x="340" y="80" width="20" height="10"/><rect x="420" y="80" width="20" height="10"/><rect x="490" y="80" width="20" height="10"/><rect x="560" y="80" width="20" height="10"/><rect x="610" y="80" width="20" height="10"/><rect x="640" y="80" width="20" height="10"/><rect x="690" y="80" width="20" height="10"/><rect x="0" y="90" width="180" height="10"/><rect x="210" y="90" width="20" height="10"/><rect x="290" y="90" width="20" height="10"/><rect x="340" y="90" width="20" height="10"/><rect x="420" y="90" width="20" height="10"/><rect x="490" y="90" width="20" height="10"/><rect x="560" y="90" width="20" height="10"/><rect x="620" y="90" width="40" height="10"/><rect x="690" y="90" width="20" height="10"/><rect x="0" y="100" width="180" height="10"/><rect x="210" y="100" width="20" height="10"/><rect x="290" y="100" width="20" height="10"/><rect x="340" y="100" width="20" height="10"/><rect x="420" y="100" width="20" height="10"/><rect x="490" y="100" width="20" height="10"/><rect x="560" y="100" width="20" height="10"/><rect x="630" y="100" width="30" height="10"/><rect x="690" y="100" width="20" height="10"/><rect x="0" y="110" width="120" height="10"/><rect x="130" y="110" width="50" height="10"/><rect x="210" y="110" width="20" height="10"/><rect x="290" y="110" width="20" height="10"/><rect x="340" y="110" width="20" height="10"/><rect x="420" y="110" width="20" height="10"/><rect x="490" y="110" width="20" height="10"/><rect x="560" y="110" width="20" height="10"/><rect x="640" y="110" width="20" height="10"/><rect x="690" y="110" width="20" height="10"/><rect x="0" y="120" width="110" height="10"/><rect x="140" y="120" width="40" height="10"/><rect x="210" y="120" width="20" height="10"/><rect x="290" y="120" width="20" height="10"/><rect x="340" y="120" width="20" height="10"/><rect x="420" y="120" width="20" height="10"/><rect x="490" y="120" width="20" height="10"/><rect x="560" y="120" width="20" height="10"/><rect x="640" y="120" width="20" height="10"/><rect x="690" y="120" width="20" height="10"/><rect x="0" y="130" width="120" height="10"/><rect x="130" y="130" width="50" height="10"/><rect x="210" y="130" width="20" height="10"/><rect x="290" y="130" width="20" height="10"/><rect x="340" y="130" width="20" height="10"/><rect x="420" y="130" width="20" height="10"/><rect x="490" y="130" width="20" height="10"/><rect x="560" y="130" width="20" height="10"/><rect x="640" y="130" width="20" height="10"/><rect x="690" y="130" width="20" height="10"/><rect x="10" y="140" width="160" height="10"/><rect x="210" y="140" width="20" height="10"/><rect x="290" y="140" width="20" height="10"/><rect x="340" y="140" width="20" height="10"/><rect x="420" y="140" width="20" height="10"/><rect x="470" y="140" width="60" height="10"/><rect x="560" y="140" width="20" height="10"/><rect x="640" y="140" width="20" height="10"/><rect x="690" y="140" width="100" height="10"/><rect x="10" y="150" width="160" height="10"/><rect x="210" y="150" width="20" height="10"/><rect x="290" y="150" width="20" height="10"/><rect x="340" y="150" width="20" height="10"/><rect x="420" y="150" width="20" height="10"/><rect x="470" y="150" width="60" height="10"/><rect x="560" y="150" width="20" height="10"/><rect x="640" y="150" width="20" height="10"/><rect x="690" y="150" width="100" height="10"/><rect x="20" y="160" width="140" height="10"/><rect x="40" y="170" width="100" height="10"/></svg>